<svg width="35" height="35" viewBox="0 0 35 35" fill="none" xmlns="http://www.w3.org/2000/svg">
<path d="M30.6251 11.6667C30.3305 11.6667 23.5522 11.709 17.5001 14.595C11.448 11.709 4.66966 11.6667 4.37508 11.6667C3.98831 11.6667 3.61737 11.8203 3.34388 12.0938C3.07039 12.3673 2.91675 12.7382 2.91675 13.125V27.5377C2.91675 27.7334 2.95613 27.9271 3.03255 28.1072C3.10896 28.2874 3.22085 28.4503 3.36154 28.5863C3.64591 28.8604 4.06154 29.0311 4.42466 28.9946L4.60987 28.9931C5.60591 28.9931 10.8749 29.1361 16.8832 31.9463C16.9065 31.9579 16.9328 31.9536 16.9561 31.9623C17.1297 32.0338 17.312 32.0834 17.5001 32.0834C17.6882 32.0834 17.8705 32.0338 18.0455 31.9623C18.0688 31.9536 18.0951 31.9579 18.1184 31.9463C24.1267 29.1346 29.3957 28.9931 30.3917 28.9931L30.577 28.9946C30.924 29.0311 31.3542 28.8604 31.6401 28.5863C31.923 28.3106 32.0834 27.9315 32.0834 27.5377V13.125C32.0834 12.7382 31.9298 12.3673 31.6563 12.0938C31.3828 11.8203 31.0119 11.6667 30.6251 11.6667ZM5.83341 14.6548C7.99904 14.8167 12.2224 15.3548 16.0417 17.1223V28.4127C11.6667 26.6992 7.88966 26.234 5.83341 26.1144V14.6548ZM29.1667 26.1144C27.1105 26.234 23.3334 26.6992 18.9584 28.4127V17.1223C22.7778 15.3548 27.0011 14.8167 29.1667 14.6548V26.1144Z" fill="#FFD233"/>
<path d="M17.5 11.6667C19.9162 11.6667 21.875 9.70793 21.875 7.29169C21.875 4.87544 19.9162 2.91669 17.5 2.91669C15.0838 2.91669 13.125 4.87544 13.125 7.29169C13.125 9.70793 15.0838 11.6667 17.5 11.6667Z" fill="#FFD233"/>
</svg>
